<svg xmlns="http://www.w3.org/2000/svg" width="520" height="360" viewBox="0 0 520 360" role="img" aria-labelledby="title desc">
  <title id="title">Collaboration professionnelle</title>
  <desc id="desc">Deux personnes collaborent autour d'un bureau avec des documents et un ordinateur portable.</desc>
  <defs>
    <linearGradient id="bg" x1="0" x2="1" y1="0" y2="1">
      <stop offset="0%" stop-color="#f5efe6" />
      <stop offset="100%" stop-color="#e2d3c1" />
    </linearGradient>
    <linearGradient id="accent" x1="0" x2="1" y1="0" y2="1">
      <stop offset="0%" stop-color="#16a34a" />
      <stop offset="100%" stop-color="#0f766e" />
    </linearGradient>
  </defs>
  <rect width="520" height="360" rx="32" fill="url(#bg)" />
  <circle cx="120" cy="120" r="68" fill="#14532d" opacity="0.1" />
  <circle cx="400" cy="80" r="54" fill="#14532d" opacity="0.06" />
  <path d="M60 280h400" stroke="#d6b977" stroke-width="6" stroke-linecap="round" opacity="0.6" />
  <rect x="120" y="140" width="280" height="120" rx="28" fill="#fff" opacity="0.85" />
  <rect x="132" y="152" width="256" height="52" rx="18" fill="#ecfdf5" />
  <rect x="150" y="198" width="120" height="12" rx="6" fill="#0f172a" opacity="0.2" />
  <rect x="150" y="220" width="80" height="12" rx="6" fill="#0f172a" opacity="0.15" />
  <rect x="246" y="198" width="120" height="12" rx="6" fill="#0f172a" opacity="0.1" />
  <path d="M210 148h60" stroke="#10b981" stroke-width="6" stroke-linecap="round" />
  <path d="M210 160h80" stroke="#10b981" stroke-width="6" stroke-linecap="round" opacity="0.6" />
  <ellipse cx="210" cy="292" rx="38" ry="10" fill="#0f172a" opacity="0.08" />
  <ellipse cx="320" cy="300" rx="42" ry="10" fill="#0f172a" opacity="0.08" />
  <path d="M188 214c0-22 14-38 32-38s32 16 32 38" fill="#fde68a" />
  <path d="M188 214c0-22 14-38 32-38s32 16 32 38" fill="none" stroke="#14532d" stroke-width="2" />
  <path d="M212 212c0 18-8 56-8 72h32c0-16-8-54-8-72" fill="#0f766e" />
  <path d="M204 284h32" stroke="#0f172a" stroke-width="6" stroke-linecap="round" />
  <path d="M272 216c0-18 12-30 28-30s28 12 28 30" fill="#f5efe6" stroke="#14532d" stroke-width="2" />
  <path d="M292 214c0 18-8 56-8 72h32c0-16-8-54-8-72" fill="url(#accent)" />
  <path d="M284 286h32" stroke="#0f172a" stroke-width="6" stroke-linecap="round" />
  <rect x="236" y="248" width="120" height="24" rx="12" fill="#0f172a" opacity="0.1" />
  <rect x="256" y="256" width="80" height="12" rx="6" fill="#10b981" opacity="0.7" />
  <circle cx="208" cy="160" r="20" fill="#14532d" />
  <circle cx="304" cy="176" r="20" fill="#14532d" opacity="0.9" />
  <path d="M196 164c4 4 12 8 20 8s16-4 20-8" stroke="#f8fafc" stroke-width="4" stroke-linecap="round" opacity="0.7" />
  <path d="M292 180c4 4 12 8 20 8s16-4 20-8" stroke="#f8fafc" stroke-width="4" stroke-linecap="round" opacity="0.5" />
</svg>
